<svg xmlns="http://www.w3.org/2000/svg" viewBox="0 0 64 64 id
"><path fill="#ff9e1f" d="M59,46.5a12.5,12.5,0,0,1-23.47,6A19.88,19.88,0,0,0,50.47,37.56a1,1,0,0,0-.4-1.05,1,1,0,0,0-1.12,0A15.4,15.4,0,0,1,40.5,39a15.22,15.22,0,0,1-3.66-.44A12.5,12.5,0,0,1,59,46.5Z" opacity=".3"/><path fill="#ff9e1f" d="M50.07,36.51a1,1,0,0,0-1.12,0A15.4,15.4,0,0,1,40.5,39a15.22,15.22,0,0,1-3.66-.44,15.49,15.49,0,0,1-9.33-23.51,1,1,0,0,0,0-1.12,1,1,0,0,0-1-.4A20,20,0,0,0,31,53a20.49,20.49,0,0,0,4.53-.51A19.88,19.88,0,0,0,50.47,37.56,1,1,0,0,0,50.07,36.51ZM34.7,50.62A18,18,0,0,1,24.61,16.17,17.5,17.5,0,0,0,47.83,39.39,17.9,17.9,0,0,1,34.7,50.62Z"/><path d="M10 22a1 1 0 0 1-1-1 1 1 0 0 0-1-1 1 1 0 0 1 0-2 1 1 0 0 0 1-1 1 1 0 0 1 2 0 1 1 0 0 0 1 1 1 1 0 0 1 0 2 1 1 0 0 0-1 1A1 1 0 0 1 10 22zM51 18a1 1 0 0 1-1-1 1 1 0 0 0-1-1 1 1 0 0 1 0-2 1 1 0 0 0 1-1 1 1 0 0 1 2 0 1 1 0 0 0 1 1 1 1 0 0 1 0 2 1 1 0 0 0-1 1A1 1 0 0 1 51 18zM15 54a1 1 0 0 1-1-1 1 1 0 0 0-1-1 1 1 0 0 1 0-2 1 1 0 0 0 1-1 1 1 0 0 1 2 0 1 1 0 0 0 1 1 1 1 0 0 1 0 2 1 1 0 0 0-1 1A1 1 0 0 1 15 54z"/><circle cx="7" cy="39" r="1"/><circle cx="57" cy="26" r="1"/><circle cx="8" cy="26" r="1"/><circle cx="44" cy="22" r="1"/><circle cx="32" cy="58" r="1"/><circle cx="51" cy="32" r="1"/><circle cx="32" cy="18" r="1"/><circle cx="44" cy="10" r="1"/><circle cx="55" cy="43" r="1"/><circle cx="20" cy="11" r="1"/><path d="M49 49a1 1 0 0 1-1-1V47a1 1 0 0 1 2 0v1A1 1 0 0 1 49 49zM52 51H51a1 1 0 0 1 0-2h1a1 1 0 0 1 0 2zM47 51H46a1 1 0 0 1 0-2h1a1 1 0 0 1 0 2zM49 54a1 1 0 0 1-1-1V52a1 1 0 0 1 2 0v1A1 1 0 0 1 49 54zM35 28a1 1 0 0 1-1-1V26a1 1 0 0 1 2 0v1A1 1 0 0 1 35 28zM38 30H37a1 1 0 0 1 0-2h1a1 1 0 0 1 0 2zM33 30H32a1 1 0 0 1 0-2h1a1 1 0 0 1 0 2zM35 33a1 1 0 0 1-1-1V31a1 1 0 0 1 2 0v1A1 1 0 0 1 35 33zM32 7a1 1 0 0 1-1-1V5a1 1 0 0 1 2 0V6A1 1 0 0 1 32 7zM35 9H34a1 1 0 0 1 0-2h1a1 1 0 0 1 0 2zM30 9H29a1 1 0 0 1 0-2h1a1 1 0 0 1 0 2zM32 12a1 1 0 0 1-1-1V10a1 1 0 0 1 2 0v1A1 1 0 0 1 32 12z"/></svg>