<svg aria-hidden="true" style="position: absolute; width: 0; height: 0; overflow: hidden;" version="1.1" xmlns="http://www.w3.org/2000/svg" xmlns:xlink="http://www.w3.org/1999/xlink">
<defs>
<symbol id="icon-facebook" viewBox="0 0 32 32">
<path d="M19 6h5v-6h-5c-3.86 0-7 3.14-7 7v3h-4v6h4v16h6v-16h5l1-6h-6v-3c0-0.542 0.458-1 1-1z"></path>
</symbol>
<symbol id="icon-instagram" viewBox="0 0 32 32">
<path d="M16 2.881c4.275 0 4.781 0.019 6.462 0.094 1.563 0.069 2.406 0.331 2.969 0.55 0.744 0.288 1.281 0.638 1.837 1.194 0.563 0.563 0.906 1.094 1.2 1.838 0.219 0.563 0.481 1.412 0.55 2.969 0.075 1.688 0.094 2.194 0.094 6.463s-0.019 4.781-0.094 6.463c-0.069 1.563-0.331 2.406-0.55 2.969-0.288 0.744-0.637 1.281-1.194 1.837-0.563 0.563-1.094 0.906-1.837 1.2-0.563 0.219-1.413 0.481-2.969 0.55-1.688 0.075-2.194 0.094-6.463 0.094s-4.781-0.019-6.463-0.094c-1.563-0.069-2.406-0.331-2.969-0.55-0.744-0.288-1.281-0.637-1.838-1.194-0.563-0.563-0.906-1.094-1.2-1.837-0.219-0.563-0.481-1.413-0.55-2.969-0.075-1.688-0.094-2.194-0.094-6.463s0.019-4.781 0.094-6.463c0.069-1.563 0.331-2.406 0.55-2.969 0.288-0.744 0.638-1.281 1.194-1.838 0.563-0.563 1.094-0.906 1.838-1.2 0.563-0.219 1.412-0.481 2.969-0.55 1.681-0.075 2.188-0.094 6.463-0.094zM16 0c-4.344 0-4.887 0.019-6.594 0.094-1.7 0.075-2.869 0.35-3.881 0.744-1.056 0.412-1.95 0.956-2.837 1.85-0.894 0.888-1.438 1.781-1.85 2.831-0.394 1.019-0.669 2.181-0.744 3.881-0.075 1.713-0.094 2.256-0.094 6.6s0.019 4.887 0.094 6.594c0.075 1.7 0.35 2.869 0.744 3.881 0.413 1.056 0.956 1.95 1.85 2.837 0.887 0.887 1.781 1.438 2.831 1.844 1.019 0.394 2.181 0.669 3.881 0.744 1.706 0.075 2.25 0.094 6.594 0.094s4.888-0.019 6.594-0.094c1.7-0.075 2.869-0.35 3.881-0.744 1.050-0.406 1.944-0.956 2.831-1.844s1.438-1.781 1.844-2.831c0.394-1.019 0.669-2.181 0.744-3.881 0.075-1.706 0.094-2.25 0.094-6.594s-0.019-4.887-0.094-6.594c-0.075-1.7-0.35-2.869-0.744-3.881-0.394-1.063-0.938-1.956-1.831-2.844-0.887-0.887-1.781-1.438-2.831-1.844-1.019-0.394-2.181-0.669-3.881-0.744-1.712-0.081-2.256-0.1-6.6-0.1v0z"></path>
<path d="M16 7.781c-4.537 0-8.219 3.681-8.219 8.219s3.681 8.219 8.219 8.219 8.219-3.681 8.219-8.219c0-4.537-3.681-8.219-8.219-8.219zM16 21.331c-2.944 0-5.331-2.387-5.331-5.331s2.387-5.331 5.331-5.331c2.944 0 5.331 2.387 5.331 5.331s-2.387 5.331-5.331 5.331z"></path>
<path d="M26.462 7.456c0 1.060-0.859 1.919-1.919 1.919s-1.919-0.859-1.919-1.919c0-1.060 0.859-1.919 1.919-1.919s1.919 0.859 1.919 1.919z"></path>
</symbol>
<symbol id="icon-twitter" viewBox="0 0 32 32">
<path d="M32 7.075c-1.175 0.525-2.444 0.875-3.769 1.031 1.356-0.813 2.394-2.1 2.887-3.631-1.269 0.75-2.675 1.3-4.169 1.594-1.2-1.275-2.906-2.069-4.794-2.069-3.625 0-6.563 2.938-6.563 6.563 0 0.512 0.056 1.012 0.169 1.494-5.456-0.275-10.294-2.888-13.531-6.862-0.563 0.969-0.887 2.1-0.887 3.3 0 2.275 1.156 4.287 2.919 5.463-1.075-0.031-2.087-0.331-2.975-0.819 0 0.025 0 0.056 0 0.081 0 3.181 2.263 5.838 5.269 6.437-0.55 0.15-1.131 0.231-1.731 0.231-0.425 0-0.831-0.044-1.237-0.119 0.838 2.606 3.263 4.506 6.131 4.563-2.25 1.762-5.075 2.813-8.156 2.813-0.531 0-1.050-0.031-1.569-0.094 2.913 1.869 6.362 2.95 10.069 2.95 12.075 0 18.681-10.006 18.681-18.681 0-0.287-0.006-0.569-0.019-0.85 1.281-0.919 2.394-2.075 3.275-3.394z"></path>
</symbol>
<symbol id="icon-github" viewBox="0 0 32 32">
<path d="M16 0.395c-8.836 0-16 7.163-16 16 0 7.069 4.585 13.067 10.942 15.182 0.8 0.148 1.094-0.347 1.094-0.77 0-0.381-0.015-1.642-0.022-2.979-4.452 0.968-5.391-1.888-5.391-1.888-0.728-1.849-1.776-2.341-1.776-2.341-1.452-0.993 0.11-0.973 0.11-0.973 1.606 0.113 2.452 1.649 2.452 1.649 1.427 2.446 3.743 1.739 4.656 1.33 0.143-1.034 0.558-1.74 1.016-2.14-3.554-0.404-7.29-1.777-7.29-7.907 0-1.747 0.625-3.174 1.649-4.295-0.166-0.403-0.714-2.030 0.155-4.234 0 0 1.344-0.43 4.401 1.64 1.276-0.355 2.645-0.532 4.005-0.539 1.359 0.006 2.729 0.184 4.008 0.539 3.054-2.070 4.395-1.64 4.395-1.64 0.871 2.204 0.323 3.831 0.157 4.234 1.026 1.12 1.647 2.548 1.647 4.295 0 6.145-3.743 7.498-7.306 7.895 0.574 0.497 1.085 1.47 1.085 2.963 0 2.141-0.019 3.864-0.019 4.391 0 0.426 0.288 0.925 1.099 0.768 6.354-2.118 10.933-8.113 10.933-15.18 0-8.837-7.164-16-16-16z"></path>
</symbol>
<symbol id="icon-linkedin" viewBox="0 0 32 32">
<path d="M29 0h-26c-1.65 0-3 1.35-3 3v26c0 1.65 1.35 3 3 3h26c1.65 0 3-1.35 3-3v-26c0-1.65-1.35-3-3-3zM12 26h-4v-14h4v14zM10 10c-1.106 0-2-0.894-2-2s0.894-2 2-2c1.106 0 2 0.894 2 2s-0.894 2-2 2zM26 26h-4v-8c0-1.106-0.894-2-2-2s-2 0.894-2 2v8h-4v-14h4v2.481c0.825-1.131 2.087-2.481 3.5-2.481 2.488 0 4.5 2.238 4.5 5v9z"></path>
</symbol>
</defs>
</svg>

<svg width="130" id="icon-javascript" height="32" viewBox="0 0 130 32" fill="none" xmlns="http://www.w3.org/2000/svg">
<path d="M125 0H31V32H125C127.761 32 130 29.7614 130 27V5C130 2.23858 127.761 0 125 0Z" fill="#0F1418"/>
<path d="M31 0H5C2.23858 0 0 2.23858 0 5V27C0 29.7614 2.23858 32 5 32H31V0Z" fill="#F1C731"/>
<path d="M15.3346 28.0498C15.0155 28.0498 14.6917 27.9641 14.4107 27.8022L11.4723 26.0639C11.0342 25.8162 11.2485 25.7305 11.3913 25.6829C11.9771 25.4781 12.0962 25.4353 12.72 25.0781C12.7867 25.04 12.8724 25.0543 12.9391 25.0971L15.1965 26.4354C15.2774 26.483 15.3917 26.483 15.4679 26.4354L24.264 21.3587C24.345 21.311 24.3974 21.2158 24.3974 21.1205V10.9672C24.3974 10.8671 24.345 10.7767 24.2593 10.7243L15.4679 5.65234C15.387 5.60472 15.2774 5.60472 15.1965 5.65234L6.40989 10.729C6.32417 10.7767 6.27178 10.8719 6.27178 10.9719V21.1205C6.27178 21.2158 6.32417 21.311 6.40989 21.3539L8.81965 22.7445C10.1293 23.397 10.9294 22.6302 10.9294 21.854V11.8339C10.9294 11.691 11.0437 11.5815 11.1866 11.5815H12.3009C12.4391 11.5815 12.5581 11.691 12.5581 11.8339V21.8587C12.5581 23.6017 11.6056 24.6018 9.9531 24.6018C9.44352 24.6018 9.04348 24.6018 7.92909 24.0494L5.6241 22.7207C5.05261 22.3921 4.7002 21.7778 4.7002 21.1158V10.9672C4.7002 10.3099 5.05261 9.69084 5.6241 9.36224L14.4107 4.28554C14.9679 3.97123 15.706 3.97123 16.2585 4.28554L25.0546 9.367C25.6261 9.6956 25.9785 10.3099 25.9785 10.9719V21.1205C25.9785 21.7778 25.6261 22.3921 25.0546 22.7255L16.2585 27.8022C15.9775 27.9641 15.6584 28.0498 15.3346 28.0498ZM22.4353 18.0441C22.4353 16.1439 21.1494 15.639 18.4492 15.2819C15.7156 14.9199 15.4394 14.7342 15.4394 14.096C15.4394 13.5674 15.6727 12.8626 17.6967 12.8626C19.5017 12.8626 20.1684 13.2531 20.4446 14.4723C20.4684 14.5866 20.5732 14.6723 20.6923 14.6723H21.8352C21.9067 14.6723 21.9733 14.6437 22.021 14.5913C22.0686 14.5389 22.0924 14.4675 22.0876 14.3961C21.9114 12.2959 20.516 11.3196 17.6967 11.3196C15.1869 11.3196 13.6916 12.3768 13.6916 14.1532C13.6916 16.0772 15.1822 16.6106 17.5872 16.8487C20.4684 17.1297 20.6923 17.5535 20.6923 18.1202C20.6923 19.1013 19.9017 19.5204 18.0491 19.5204C15.7203 19.5204 15.2108 18.9346 15.0393 17.7774C15.0203 17.6535 14.9155 17.5631 14.7869 17.5631H13.6487C13.5058 17.5631 13.3963 17.6773 13.3963 17.8155C13.3963 19.2966 14.2011 21.0634 18.0539 21.0634C20.8351 21.0586 22.4353 19.9585 22.4353 18.0441Z" fill="white"/>
<path d="M49.192 17.8325C49.192 19.2388 48.8648 20.3154 48.2105 21.0625C47.5611 21.8096 46.6187 22.1831 45.3834 22.1831C44.8316 22.1831 44.3213 22.0879 43.8526 21.8975V19.6782C44.2579 19.9858 44.712 20.1396 45.2149 20.1396C46.294 20.1396 46.8336 19.3389 46.8336 17.7373V11.4971H49.192V17.8325ZM57.8021 22H55.6122V20.9233H55.5829C55.08 21.7632 54.3353 22.1831 53.349 22.1831C52.6215 22.1831 52.0477 21.978 51.6278 21.5679C51.2128 21.1528 51.0053 20.6011 51.0053 19.9126C51.0053 18.4575 51.8671 17.6177 53.5907 17.3931L55.6268 17.1221C55.6268 16.3018 55.1825 15.8916 54.2938 15.8916C53.4003 15.8916 52.5507 16.1577 51.745 16.6899V14.9468C52.0673 14.7808 52.5067 14.6343 53.0634 14.5073C53.6249 14.3804 54.1351 14.3169 54.5941 14.3169C56.7328 14.3169 57.8021 15.3838 57.8021 17.5176V22ZM55.6268 18.9531V18.4478L54.2645 18.6235C53.5126 18.7212 53.1366 19.0605 53.1366 19.6416C53.1366 19.9053 53.2269 20.1226 53.4076 20.2935C53.5931 20.4595 53.8422 20.5425 54.1547 20.5425C54.5892 20.5425 54.9432 20.3936 55.2167 20.0957C55.4901 19.793 55.6268 19.4121 55.6268 18.9531ZM66.9543 14.5L64.1638 22H61.5271L58.8684 14.5H61.3439L62.6477 19.1216C62.7941 19.644 62.8796 20.0884 62.904 20.4546H62.9333C62.9675 20.1079 63.0578 19.6782 63.2043 19.1655L64.5373 14.5H66.9543ZM74.1289 22H71.939V20.9233H71.9097C71.4068 21.7632 70.6621 22.1831 69.6758 22.1831C68.9483 22.1831 68.3745 21.978 67.9546 21.5679C67.5396 21.1528 67.3321 20.6011 67.3321 19.9126C67.3321 18.4575 68.1939 17.6177 69.9175 17.3931L71.9536 17.1221C71.9536 16.3018 71.5093 15.8916 70.6206 15.8916C69.7271 15.8916 68.8775 16.1577 68.0718 16.6899V14.9468C68.3941 14.7808 68.8335 14.6343 69.3902 14.5073C69.9517 14.3804 70.4619 14.3169 70.9209 14.3169C73.0596 14.3169 74.1289 15.3838 74.1289 17.5176V22ZM71.9536 18.9531V18.4478L70.5913 18.6235C69.8394 18.7212 69.4634 19.0605 69.4634 19.6416C69.4634 19.9053 69.5537 20.1226 69.7344 20.2935C69.9199 20.4595 70.169 20.5425 70.4815 20.5425C70.916 20.5425 71.27 20.3936 71.5435 20.0957C71.8169 19.793 71.9536 19.4121 71.9536 18.9531ZM76.1473 21.5972V19.2534C76.5721 19.6099 77.0335 19.8784 77.5316 20.0591C78.0296 20.2349 78.5326 20.3228 79.0404 20.3228C79.3382 20.3228 79.597 20.2959 79.8167 20.2422C80.0413 20.1885 80.2269 20.1152 80.3734 20.0225C80.5247 19.9248 80.6371 19.8125 80.7103 19.6855C80.7835 19.5537 80.8202 19.4121 80.8202 19.2607C80.8202 19.0557 80.7616 18.8726 80.6444 18.7114C80.5272 18.5503 80.3661 18.4014 80.161 18.2646C79.9608 18.1279 79.7215 17.9961 79.4432 17.8691C79.1649 17.7422 78.8646 17.6128 78.5423 17.481C77.722 17.1392 77.1092 16.7217 76.7039 16.2285C76.3036 15.7354 76.1034 15.1396 76.1034 14.4414C76.1034 13.8945 76.2132 13.4258 76.4329 13.0352C76.6527 12.6396 76.9505 12.3149 77.3265 12.061C77.7074 11.8071 78.1468 11.6216 78.6449 11.5044C79.1429 11.3823 79.6703 11.3213 80.2269 11.3213C80.7738 11.3213 81.2572 11.3555 81.6771 11.4238C82.1019 11.4873 82.4925 11.5874 82.849 11.7241V13.9141C82.6732 13.792 82.4803 13.6846 82.2704 13.5918C82.0653 13.499 81.8529 13.4233 81.6331 13.3647C81.4134 13.3013 81.1937 13.2549 80.974 13.2256C80.7591 13.1963 80.554 13.1816 80.3587 13.1816C80.0902 13.1816 79.846 13.2085 79.6263 13.2622C79.4066 13.311 79.221 13.3818 79.0697 13.4746C78.9183 13.5674 78.8011 13.6797 78.7181 13.8115C78.6351 13.9385 78.5936 14.0825 78.5936 14.2437C78.5936 14.4194 78.64 14.5781 78.7328 14.7197C78.8255 14.8564 78.9574 14.9883 79.1283 15.1152C79.2992 15.2373 79.5067 15.3594 79.7508 15.4814C79.995 15.5986 80.2708 15.7207 80.5785 15.8477C80.9984 16.0234 81.3744 16.2114 81.7064 16.4116C82.0433 16.6069 82.3314 16.8291 82.5706 17.0781C82.8099 17.3271 82.993 17.6128 83.12 17.9351C83.2469 18.2524 83.3104 18.6235 83.3104 19.0483C83.3104 19.6343 83.1981 20.1274 82.9735 20.5278C82.7537 20.9233 82.4535 21.2456 82.0726 21.4946C81.6917 21.7388 81.2474 21.9146 80.7396 22.022C80.2367 22.1294 79.7044 22.1831 79.1429 22.1831C78.5667 22.1831 78.0174 22.1343 77.495 22.0366C76.9774 21.939 76.5282 21.7925 76.1473 21.5972ZM90.9391 21.729C90.4167 22.0317 89.6623 22.1831 88.6759 22.1831C87.5236 22.1831 86.591 21.834 85.8781 21.1357C85.1652 20.4375 84.8088 19.5366 84.8088 18.4331C84.8088 17.1587 85.1896 16.1553 85.9513 15.4229C86.7179 14.6855 87.7409 14.3169 89.0202 14.3169C89.904 14.3169 90.5436 14.4341 90.9391 14.6685V16.6313C90.4557 16.27 89.9162 16.0894 89.3205 16.0894C88.6564 16.0894 88.1291 16.2847 87.7384 16.6753C87.3527 17.061 87.1598 17.5957 87.1598 18.2793C87.1598 18.9434 87.3454 19.4658 87.7165 19.8467C88.0876 20.2227 88.5978 20.4106 89.2472 20.4106C89.8234 20.4106 90.3874 20.23 90.9391 19.8687V21.729ZM97.5351 16.5874C97.2568 16.436 96.9321 16.3604 96.561 16.3604C96.0581 16.3604 95.665 16.5459 95.3818 16.917C95.0986 17.2832 94.957 17.7837 94.957 18.4185V22H92.6426V14.5H94.957V15.8916H94.9863C95.3525 14.876 96.0117 14.3682 96.9638 14.3682C97.208 14.3682 97.3984 14.3975 97.5351 14.4561V16.5874ZM100.03 13.3135C99.639 13.3135 99.3191 13.1987 99.0701 12.9692C98.8211 12.7349 98.6966 12.4492 98.6966 12.1123C98.6966 11.7656 98.8211 11.4824 99.0701 11.2627C99.3191 11.043 99.639 10.9331 100.03 10.9331C100.425 10.9331 100.745 11.043 100.989 11.2627C101.238 11.4824 101.363 11.7656 101.363 12.1123C101.363 12.4639 101.238 12.752 100.989 12.9766C100.745 13.2012 100.425 13.3135 100.03 13.3135ZM101.172 22H98.8577V14.5H101.172V22ZM105.644 21.1284H105.615V25.4497H103.3V14.5H105.615V15.6279H105.644C106.215 14.7539 107.019 14.3169 108.054 14.3169C109.026 14.3169 109.775 14.6514 110.302 15.3203C110.835 15.9844 111.101 16.8901 111.101 18.0376C111.101 19.2876 110.791 20.291 110.171 21.0479C109.555 21.8047 108.735 22.1831 107.71 22.1831C106.806 22.1831 106.118 21.8315 105.644 21.1284ZM105.578 18.0522V18.6528C105.578 19.1704 105.715 19.5928 105.988 19.9199C106.262 20.2471 106.621 20.4106 107.065 20.4106C107.592 20.4106 108 20.208 108.288 19.8027C108.581 19.3926 108.728 18.814 108.728 18.0669C108.728 16.7485 108.215 16.0894 107.19 16.0894C106.716 16.0894 106.328 16.27 106.025 16.6313C105.727 16.9878 105.578 17.4614 105.578 18.0522ZM117.316 21.9121C116.974 22.0928 116.459 22.1831 115.77 22.1831C114.14 22.1831 113.324 21.3359 113.324 19.6416V16.2065H112.108V14.5H113.324V12.8813L115.631 12.2222V14.5H117.316V16.2065H115.631V19.2388C115.631 20.02 115.941 20.4106 116.561 20.4106C116.806 20.4106 117.057 20.3398 117.316 20.1982V21.9121Z" fill="white"/>
<path d="M125 0H5C2.23858 0 0 2.23858 0 5V27C0 29.7614 2.23858 32 5 32H125C127.761 32 130 29.7614 130 27V5C130 2.23858 127.761 0 125 0Z" fill="url(#paint0_linear)"/>
<defs>
<linearGradient id="paint0_linear" x1="0" y1="0" x2="0" y2="32" gradientUnits="userSpaceOnUse">
<stop stop-color="#BBBBBB" stop-opacity="0.1"/>
<stop offset="1" stop-opacity="0.1"/>
</linearGradient>
</defs>
</svg>


<svg width="100" height="32" viewBox="0 0 100 32" fill="none" xmlns="http://www.w3.org/2000/svg" id="icon-html">
<path d="M95 0H31V32H95C97.7614 32 100 29.7614 100 27V5C100 2.23858 97.7614 0 95 0Z" fill="#0F1418"/>
<path d="M31 0H5C2.23858 0 0 2.23858 0 5V27C0 29.7614 2.23858 32 5 32H31V0Z" fill="#E44D26"/>
<path d="M6 4L7.86964 25.2036L16.2589 28L24.7018 25.2036L26.5714 4H6ZM22.5107 10.8518H12.6643L12.8839 13.4982H22.2911L21.5625 21.4482L16.3179 22.8946V22.9107H16.2589L10.9714 21.4482L10.65 17.3875H13.2054L13.3929 19.4286L16.2589 20.2054L19.1357 19.4286L19.4571 16.0964H10.5161L9.83036 8.29643H22.7464L22.5107 10.8518Z" fill="white"/>
<path d="M53.5698 22H51.1968V17.7227H46.8462V22H44.4805V11.4971H46.8462V15.6865H51.1968V11.4971H53.5698V22ZM64.0623 13.4233H61.0667V22H58.6937V13.4233H55.7127V11.4971H64.0623V13.4233ZM78.151 22H75.8146V15.7158C75.8146 15.0371 75.8439 14.2876 75.9025 13.4673H75.8439C75.7218 14.1118 75.612 14.5757 75.5143 14.8589L73.0534 22H71.1198L68.6149 14.9321C68.5465 14.7417 68.4367 14.2534 68.2853 13.4673H68.2194C68.2829 14.5024 68.3146 15.4106 68.3146 16.1919V22H66.1833V11.4971H69.6476L71.7936 17.7227C71.9645 18.2207 72.089 18.7212 72.1671 19.2241H72.2111C72.3429 18.6431 72.4821 18.1377 72.6286 17.708L74.7746 11.4971H78.151V22ZM87.501 22H81.2461V11.4971H83.6118V20.0811H87.501V22Z" fill="white"/>
<path d="M95 0H5C2.23858 0 0 2.23858 0 5V27C0 29.7614 2.23858 32 5 32H95C97.7614 32 100 29.7614 100 27V5C100 2.23858 97.7614 0 95 0Z" fill="url(#paint0_linear)"/>
<defs>
<linearGradient id="paint0_linear" x1="0" y1="0" x2="0" y2="32" gradientUnits="userSpaceOnUse">
<stop stop-color="#BBBBBB" stop-opacity="0.1"/>
<stop offset="1" stop-opacity="0.1"/>
</linearGradient>
</defs>
</svg>
