<svg xmlns="http://www.w3.org/2000/svg" id="sun" enable-background="new 0 0 32 32" viewBox="0 0 32 32"><circle cx="16" cy="16" r="7.5" fill="#fedb2d"/><path d="M16,8c-4.411,0-8,3.589-8,8s3.589,8,8,8s8-3.589,8-8S20.411,8,16,8z M16,23c-3.859,0-7-3.141-7-7s3.141-7,7-7s7,3.141,7,7   S19.859,23,16,23z"/><path d="M19.281 17.317c-.239-.138-.546-.057-.683.183C18.063 18.425 17.068 19 16 19s-2.063-.575-2.599-1.5c-.139-.239-.445-.322-.683-.183-.239.138-.321.443-.183.683.712 1.233 2.04 2 3.464 2s2.752-.767 3.464-2C19.603 17.761 19.521 17.455 19.281 17.317zM16 7c.276 0 .5-.224.5-.5v-3C16.5 3.224 16.276 3 16 3s-.5.224-.5.5v3C15.5 6.776 15.724 7 16 7zM16 25c-.276 0-.5.224-.5.5v3c0 .276.224.5.5.5s.5-.224.5-.5v-3C16.5 25.224 16.276 25 16 25zM28.5 15.5h-3c-.276 0-.5.224-.5.5s.224.5.5.5h3c.276 0 .5-.224.5-.5S28.776 15.5 28.5 15.5zM7 16c0-.276-.224-.5-.5-.5h-3C3.224 15.5 3 15.724 3 16s.224.5.5.5h3C6.776 16.5 7 16.276 7 16zM11.902 7.414c.08.192.266.309.462.309.063 0 .129-.012.191-.038.255-.105.376-.398.271-.653l-.383-.924c-.105-.254-.396-.378-.653-.271-.255.105-.376.398-.271.653L11.902 7.414zM20.098 24.586c-.105-.255-.396-.377-.653-.271-.255.105-.376.398-.271.653l.383.924c.08.192.266.309.462.309.063 0 .129-.012.191-.038.255-.105.376-.398.271-.653L20.098 24.586zM24.315 12.556c.08.192.266.309.462.309.063 0 .129-.012.191-.038l.924-.383c.255-.105.376-.398.271-.653-.105-.254-.396-.378-.653-.271l-.924.383C24.331 12.008 24.21 12.301 24.315 12.556zM7.685 19.444c-.105-.255-.396-.377-.653-.271l-.924.383c-.255.105-.376.398-.271.653.08.192.266.309.462.309.063 0 .129-.012.191-.038l.924-.383C7.669 19.992 7.79 19.699 7.685 19.444zM19.444 7.685c.063.026.127.038.191.038.196 0 .382-.116.462-.309L20.48 6.49c.105-.255-.016-.548-.271-.653-.252-.107-.547.015-.653.271l-.383.924C19.068 7.286 19.189 7.579 19.444 7.685zM12.556 24.315c-.252-.107-.547.015-.653.271L11.52 25.51c-.105.255.016.548.271.653.063.026.127.038.191.038.196 0 .382-.116.462-.309l.383-.924C12.932 24.714 12.811 24.421 12.556 24.315zM25.893 19.557l-.924-.383c-.252-.107-.547.015-.653.271-.105.255.016.548.271.653l.924.383c.063.026.127.038.191.038.196 0 .382-.116.462-.309C26.269 19.955 26.147 19.662 25.893 19.557zM6.107 12.443l.924.383c.063.026.127.038.191.038.196 0 .382-.116.462-.309.105-.255-.016-.548-.271-.653L6.49 11.52c-.253-.107-.547.015-.653.271C5.731 12.045 5.853 12.338 6.107 12.443zM22.718 9.782c.128 0 .256-.049.354-.146l2.121-2.121c.195-.195.195-.512 0-.707s-.512-.195-.707 0l-2.121 2.121c-.195.195-.195.512 0 .707C22.462 9.733 22.59 9.782 22.718 9.782zM8.929 22.364l-2.121 2.121c-.195.195-.195.512 0 .707.098.098.226.146.354.146s.256-.049.354-.146l2.121-2.121c.195-.195.195-.512 0-.707S9.124 22.169 8.929 22.364zM23.071 22.364c-.195-.195-.512-.195-.707 0s-.195.512 0 .707l2.121 2.121c.098.098.226.146.354.146s.256-.049.354-.146c.195-.195.195-.512 0-.707L23.071 22.364zM8.929 9.636c.098.098.226.146.354.146s.256-.049.354-.146c.195-.195.195-.512 0-.707L7.515 6.808c-.195-.195-.512-.195-.707 0s-.195.512 0 .707L8.929 9.636zM15 13.5c0-.276-.224-.5-.5-.5S14 13.224 14 13.5c0 .275-.225.5-.5.5S13 13.775 13 13.5c0-.276-.224-.5-.5-.5S12 13.224 12 13.5c0 .827.673 1.5 1.5 1.5S15 14.327 15 13.5zM19.5 13c-.276 0-.5.224-.5.5 0 .275-.225.5-.5.5S18 13.775 18 13.5c0-.276-.224-.5-.5-.5S17 13.224 17 13.5c0 .827.673 1.5 1.5 1.5s1.5-.673 1.5-1.5C20 13.224 19.776 13 19.5 13z"/></svg>